# xmcd CD database file
#
# Track frame offsets:
#	183
#	17658
#	39408
#	63508
#	86058
#	108783
#	134333
#	152883
#	172008
#	201358
#
# Disc length: 2890 seconds
#
# Revision: 12
# Processed by: cddbd v1.5.2PL0 Copyright (c) Steve Scherf et al.
# Submitted via: CDex 1.70beta2
#
DISCID=840b480a
DTITLE=Serah and Friedemann - Flight of the Stork
DYEAR=1988
DGENRE=New Age
TTITLE0=Forever the Wild Mare
TTITLE1=Above the Shadow
TTITLE2=Beauty: Song for Africa
TTITLE3=New Moon
TTITLE4=White Rose
TTITLE5=Flight of the Stork
TTITLE6=Riding
TTITLE7=On the Waters
TTITLE8=Conkshell
TTITLE9=Falcon
EXTD=YEAR: 1988
EXTT0=
EXTT1=
EXTT2=
EXTT3=
EXTT4=
EXTT5=
EXTT6=
EXTT7=
EXTT8=
EXTT9=
PLAYORDER=
